<?xml version="1.0" standalone="no"?>
<!DOCTYPE svg PUBLIC "-//W3C//DTD SVG 20010904//EN"
 "http://www.w3.org/TR/2001/REC-SVG-20010904/DTD/svg10.dtd">
<svg version="1.0" xmlns="http://www.w3.org/2000/svg"
 width="1024.000000pt" height="731.000000pt" viewBox="0 0 1024.000000 731.000000"
 preserveAspectRatio="xMidYMid meet">

<g transform="translate(0.000000,731.000000) scale(0.100000,-0.100000)"
fill="#000000" stroke="none">
<path d="M0 3655 l0 -3655 5120 0 5120 0 0 3655 0 3655 -5120 0 -5120 0 0
-3655z m5608 3450 c381 -53 727 -161 1084 -341 545 -273 995 -669 1344 -1184
231 -340 389 -706 479 -1107 47 -211 65 -363 72 -615 l6 -237 -202 -3 c-187
-3 -204 -4 -217 -22 -11 -16 -14 -71 -14 -278 l0 -258 -79 0 c-73 0 -79 2 -85
23 -3 12 -6 223 -6 468 l0 445 39 17 c248 110 309 465 112 656 -122 118 -309
150 -464 78 -208 -97 -289 -364 -170 -566 53 -90 166 -175 261 -196 l32 -7 0
-389 0 -390 40 -119 c22 -65 40 -132 40 -148 0 -32 -18 -92 -28 -92 -4 0 -8
32 -9 71 -2 91 -35 161 -104 223 -61 54 -121 76 -213 76 -73 0 -140 -23 -206
-70 l-29 -21 -46 36 c-92 70 -210 82 -318 32 -28 -13 -104 -59 -167 -102 -455
-309 -863 -577 -1020 -671 -182 -109 -470 -254 -504 -254 -9 0 -94 40 -189 89
-269 140 -451 207 -727 269 l-123 28 -24 88 c-59 225 -171 387 -402 585 -41
35 -89 70 -108 77 -32 14 -33 17 -33 68 0 61 -36 212 -73 307 l-25 64 -4 652
-3 652 45 7 c150 22 299 103 377 206 74 99 123 219 123 305 0 42 1 43 58 72
70 36 134 100 162 164 82 186 14 393 -159 486 l-61 32 0 324 0 324 58 16 c94
28 316 85 330 85 9 0 12 -172 12 -825 l0 -824 -32 -17 c-71 -36 -220 -159
-317 -260 -207 -217 -345 -475 -403 -753 -29 -143 -36 -423 -13 -566 47 -303
176 -576 379 -808 222 -252 500 -411 839 -479 92 -18 146 -22 302 -22 218 0
317 14 485 70 379 126 679 378 855 716 58 113 114 257 140 360 l17 66 39 -16
39 -15 0 -107 c0 -91 3 -111 19 -131 l19 -24 402 0 402 0 24 28 c34 40 33 105
-2 138 l-26 24 -319 3 -319 3 0 27 c0 23 9 31 59 54 80 37 145 104 184 186 28
60 32 77 32 157 0 82 -3 97 -32 156 -40 81 -102 140 -190 181 l-65 31 4 106
c8 183 28 201 233 201 123 0 137 2 155 20 50 50 45 127 -10 155 -42 22 -309
21 -373 -1 -67 -23 -129 -82 -163 -156 -26 -57 -29 -75 -32 -194 l-4 -131 -34
-17 c-27 -12 -36 -13 -39 -3 -2 6 -15 50 -28 97 -47 165 -126 329 -226 470
-61 87 -217 247 -318 327 l-82 66 -3 263 c-3 247 -4 264 -24 290 -38 52 -71
69 -142 74 l-67 5 1 101 c1 122 20 186 74 247 62 70 96 80 306 86 199 7 207 9
223 68 12 41 7 59 -27 96 l-26 27 -162 0 c-90 0 -187 -5 -216 -11 -132 -27
-257 -121 -312 -234 -46 -96 -55 -176 -56 -514 0 -271 -2 -303 -16 -297 -8 3
-59 15 -112 26 -245 49 -513 33 -765 -46 -43 -13 -80 -24 -83 -24 -2 0 -4 61
-4 135 l0 135 383 1 c210 1 393 4 406 8 36 10 65 55 64 98 -1 28 -9 44 -32 65
l-31 28 -394 0 -394 0 -7 193 c-8 230 -3 912 7 923 34 33 724 40 946 9z
m-1732 -790 c-2 -6 -22 -17 -43 -23 -89 -27 -169 -114 -207 -225 l-22 -62
-170 -3 -171 -2 -26 39 c-47 71 -148 112 -224 92 -57 -16 -119 -64 -144 -112
-29 -59 -24 -160 11 -213 38 -55 89 -86 154 -93 72 -7 129 14 181 67 39 40 40
40 115 40 41 0 126 -3 187 -7 98 -5 113 -8 119 -25 3 -10 30 -45 59 -77 39
-42 72 -66 120 -87 l66 -29 -5 -44 c-14 -110 -96 -220 -203 -273 -61 -30 -74
-32 -216 -39 -84 -5 -284 -8 -446 -8 -201 0 -297 -3 -305 -11 -7 -6 -13 -71
-16 -159 -5 -143 -6 -149 -35 -197 -19 -30 -49 -60 -79 -79 l-49 -30 -345 -3
-344 -3 7 31 c4 18 29 88 56 156 127 324 308 622 565 929 344 410 731 706
1234 941 l175 81 3 -281 c1 -154 0 -286 -2 -291z m164 -204 c83 -44 118 -132
86 -216 -47 -121 -194 -149 -280 -54 -42 45 -50 73 -44 140 12 118 135 186
238 130z m-936 -163 c7 -11 7 -26 0 -45 -7 -21 -17 -29 -41 -31 -51 -5 -73 43
-40 86 14 18 67 11 81 -10z m2776 -328 l0 -159 -22 8 c-22 8 -23 13 -26 160
l-3 151 26 0 25 0 0 -160z m-360 -238 c206 -53 375 -138 528 -266 171 -144
281 -276 359 -431 115 -227 153 -381 153 -613 0 -217 -34 -386 -118 -580 -34
-78 -111 -208 -145 -245 -7 -6 -32 -38 -56 -70 -60 -79 -178 -187 -277 -253
-225 -150 -458 -217 -754 -218 -170 0 -235 10 -385 55 -208 64 -368 160 -521
313 -203 203 -314 393 -379 647 -101 393 -26 784 215 1125 172 244 401 415
683 509 156 52 246 65 427 60 131 -3 173 -8 270 -33z m-2182 -629 l2 -283
-170 0 c-168 0 -171 0 -195 -25 -19 -18 -25 -35 -25 -65 0 -94 34 -110 240
-110 l150 0 0 -140 c0 -77 -1 -140 -3 -140 -2 0 -50 40 -108 89 l-104 89 -28
-20 c-15 -11 -65 -55 -111 -99 l-84 -79 -4 84 c-4 69 -10 96 -36 149 -38 77
-111 148 -192 186 -49 23 -67 26 -170 26 -105 0 -120 -2 -175 -28 -113 -53
-191 -157 -215 -285 -29 -163 78 -368 225 -428 29 -12 45 -25 45 -36 0 -17
-23 -18 -352 -18 l-351 0 6 208 c7 215 17 327 42 472 18 108 44 222 54 238 5
8 95 12 341 12 365 1 451 10 536 53 131 67 209 185 227 347 l10 90 221 -2 221
-3 3 -282z m4595 -168 c122 -51 170 -179 113 -302 -17 -37 -37 -60 -68 -80
-38 -24 -53 -28 -120 -28 -69 0 -81 3 -120 30 -52 36 -98 120 -98 177 0 144
163 258 293 203z m-5362 -357 c177 -60 186 -311 14 -389 -170 -77 -347 116
-264 288 44 90 153 135 250 101z m4407 -22 c122 -64 138 -232 29 -304 -32 -21
-52 -27 -101 -27 -52 0 -67 5 -105 31 l-45 31 3 109 c1 60 8 115 14 122 38 46
150 67 205 38z m-3767 -377 c195 -209 267 -481 178 -667 -20 -41 -76 -109 -83
-101 -2 2 -18 33 -36 69 -72 144 -159 259 -310 408 -39 38 -58 51 -72 46 -19
-6 -19 -5 0 33 50 96 208 283 240 283 9 0 47 -32 83 -71z m-541 -210 c-6 -24
-13 -102 -17 -173 l-6 -129 -54 -71 c-72 -96 -149 -252 -176 -358 -12 -49 -25
-88 -29 -88 -5 0 -8 47 -8 105 0 99 -2 107 -25 130 -23 24 -31 25 -135 25
l-110 0 0 179 0 180 214 3 c265 4 256 -1 256 128 l0 86 48 16 c26 8 48 14 50
13 1 -1 -2 -22 -8 -46z m-750 -379 l0 -180 -79 0 c-44 0 -82 4 -85 8 -6 10
-41 213 -51 295 l-7 57 111 0 111 0 0 -180z m6655 128 c-10 -85 -45 -291 -51
-300 -3 -4 -40 -8 -83 -8 l-79 0 -7 66 c-4 36 -5 117 -3 180 l3 114 113 0 114
0 -7 -52z m-5546 -214 c108 -154 159 -293 168 -460 4 -76 1 -120 -11 -177 -10
-43 -20 -77 -23 -77 -3 0 -38 12 -77 26 -109 40 -322 91 -409 99 -71 7 -78 9
-83 32 -19 76 25 282 90 418 42 87 130 220 184 278 l27 28 43 -48 c23 -26 64
-80 91 -119z m677 -142 c138 -115 231 -260 268 -413 l6 -27 -178 0 c-114 0
-212 -5 -277 -16 -55 -9 -104 -16 -110 -16 -6 0 -11 37 -13 84 -1 46 -8 116
-16 155 l-13 71 72 69 c78 74 172 151 184 151 5 0 39 -26 77 -58z m3385 -12
c26 -14 24 -23 -8 -42 -16 -9 -94 -65 -174 -125 -80 -59 -190 -139 -244 -178
-149 -107 -385 -277 -543 -392 l-142 -104 -106 3 -106 3 74 51 c40 28 170 117
288 199 118 81 307 210 420 286 113 76 261 176 330 223 129 88 164 101 211 76z
m506 -10 c38 -23 65 -71 61 -108 -3 -25 -7 -27 -53 -29 -69 -2 -85 -10 -242
-114 -181 -121 -698 -477 -765 -527 -69 -51 -116 -75 -130 -66 -6 4 -39 10
-72 13 l-61 6 125 93 c69 51 251 187 405 301 510 379 550 408 585 430 44 26
105 27 147 1z m-5409 -727 l2 -603 -205 0 -204 0 -40 128 c-60 190 -78 265
-96 392 -9 63 -18 126 -21 140 -9 43 -24 484 -18 505 14 46 12 45 303 43 l276
-3 3 -602z m6511 583 c13 -33 3 -417 -15 -571 -22 -192 -81 -447 -136 -587
l-10 -28 -189 0 -189 0 0 598 c0 329 3 602 7 605 3 4 123 7 265 7 l258 0 9
-24z m-995 -200 c36 -15 76 -60 76 -85 -1 -10 -42 -40 -108 -77 -94 -53 -427
-261 -798 -497 -66 -42 -126 -77 -132 -77 -6 0 -14 9 -17 21 -4 11 -20 35 -36
54 l-30 34 98 68 c162 114 427 297 721 496 122 83 155 93 226 63z m266 -544
l0 -327 -449 -442 c-247 -242 -477 -460 -511 -483 -72 -49 -123 -73 -291 -133
-246 -90 -360 -147 -627 -315 -192 -120 -402 -202 -519 -202 -233 0 -351 237
-199 398 45 48 87 67 241 107 322 84 450 132 582 217 178 116 293 269 338 449
15 61 21 70 63 100 64 46 98 85 130 151 30 62 49 76 382 283 63 39 196 122
295 185 236 149 548 340 558 340 4 0 7 -147 7 -328z m-5215 253 c457 -105 780
-311 939 -597 45 -82 60 -130 85 -268 37 -208 93 -324 215 -446 86 -85 168
-142 290 -200 100 -47 336 -123 461 -148 122 -25 174 -45 217 -84 55 -49 80
-103 81 -171 0 -63 -19 -108 -67 -159 -56 -60 -100 -77 -201 -77 -81 0 -104 5
-234 49 -116 40 -171 65 -275 129 -328 199 -452 261 -651 327 -71 24 -159 58
-195 76 -115 57 -87 31 -922 856 l-108 106 0 323 0 322 128 -6 c80 -4 167 -16
237 -32z m1420 -4 c286 -51 422 -98 744 -259 l233 -117 632 -5 c622 -5 632 -5
671 -27 50 -27 80 -58 100 -105 28 -69 14 -129 -44 -191 -60 -66 -5 -62 -901
-67 l-815 -5 -3 -82 -3 -83 288 -1 c158 -1 349 -4 423 -8 l135 -6 -63 -42
c-116 -77 -295 -122 -405 -103 -34 6 -224 65 -422 130 -198 65 -454 149 -570
185 -115 36 -213 69 -216 73 -4 4 -14 32 -24 62 -72 223 -261 446 -513 604
-23 15 -41 30 -38 35 3 4 49 13 103 19 54 7 109 14 123 16 14 3 120 3 235 1
156 -2 241 -9 330 -24z m665 -811 c0 -23 -4 -30 -20 -30 -16 0 -20 7 -20 30 0
23 4 30 20 30 16 0 20 -7 20 -30z m3130 -116 l0 -66 -53 -51 c-115 -113 -595
-497 -748 -599 -102 -68 -499 -278 -659 -348 -113 -50 -251 -102 -256 -97 -8
7 192 126 276 166 47 21 150 63 230 91 226 82 331 140 468 260 37 32 216 205
397 384 182 179 333 325 338 326 4 0 7 -30 7 -66z m-5195 -326 c171 -169 345
-336 387 -371 101 -83 217 -147 347 -193 162 -56 320 -126 462 -204 71 -39
129 -73 129 -75 0 -19 -715 300 -904 404 -71 39 -289 197 -371 269 -22 19
-131 118 -242 221 l-203 186 0 75 0 74 43 -39 c23 -22 182 -178 352 -347z
m1741 147 c295 -98 536 -172 589 -181 236 -42 431 17 738 223 l168 113 165 0
c113 0 164 -3 164 -11 0 -33 -66 -142 -119 -196 -145 -149 -298 -219 -641
-292 -210 -45 -303 -98 -380 -218 l-26 -41 -19 35 c-28 51 -122 132 -190 164
-33 15 -118 40 -189 54 -330 68 -492 140 -636 285 -86 86 -168 230 -131 230 5
0 233 -74 507 -165z"/>
<path d="M4862 6890 c-84 -53 -79 -175 10 -231 102 -64 239 62 184 169 -39 75
-128 104 -194 62z"/>
<path d="M5273 6889 c-62 -39 -78 -135 -32 -193 71 -91 204 -62 229 49 11 51
-5 98 -46 134 -42 38 -102 42 -151 10z"/>
<path d="M5683 6850 c-12 -5 -29 -20 -38 -34 -14 -21 -15 -32 -6 -57 21 -62
83 -78 126 -34 33 33 32 70 -4 106 -31 31 -42 33 -78 19z"/>
<path d="M4250 6587 c-38 -19 -54 -60 -40 -102 6 -19 20 -40 30 -45 81 -43
159 56 98 124 -29 31 -57 39 -88 23z"/>
<path d="M4883 6369 c-73 -22 -109 -110 -74 -182 25 -52 68 -79 126 -79 58 0
99 29 121 87 16 43 16 47 0 90 -28 72 -99 106 -173 84z"/>
<path d="M5281 6363 c-65 -32 -91 -125 -55 -194 19 -39 91 -73 131 -63 56 14
85 35 104 80 16 36 18 51 10 81 -14 53 -38 83 -77 99 -43 18 -71 17 -113 -3z"/>
<path d="M6552 6345 c-211 -59 -337 -229 -336 -455 0 -171 45 -261 216 -432
205 -205 439 -428 448 -428 10 0 292 266 490 461 107 105 151 179 175 296 19
86 18 132 0 212 -47 198 -220 348 -415 359 -80 5 -171 -14 -218 -44 -21 -14
-29 -13 -89 12 -83 33 -194 41 -271 19z m175 -190 c33 -10 70 -32 103 -62 l51
-46 42 40 c84 81 181 103 275 63 58 -25 125 -92 149 -148 25 -57 23 -187 -4
-237 -19 -35 -305 -328 -421 -430 l-43 -38 -77 75 c-285 278 -352 347 -368
378 -12 24 -19 64 -22 130 -4 89 -2 98 25 149 31 60 82 106 139 126 51 18 89
18 151 0z"/>
<path d="M7685 5545 c-53 -53 -18 -155 54 -155 43 0 60 9 76 41 36 69 0 139
-70 139 -25 0 -44 -8 -60 -25z"/>
<path d="M7604 5226 c-49 -22 -74 -61 -74 -118 0 -64 26 -101 84 -123 36 -14
51 -15 79 -6 63 21 113 92 103 146 -17 89 -109 137 -192 101z"/>
<path d="M7971 5034 c-40 -33 -43 -83 -6 -119 51 -52 135 -15 135 59 0 26 -7
40 -31 60 -17 14 -39 26 -49 26 -10 0 -32 -12 -49 -26z"/>
<path d="M7411 3914 c-44 -56 -11 -134 58 -134 76 0 113 89 56 138 -37 31 -88
30 -114 -4z"/>
<path d="M8252 3917 c-47 -50 -10 -137 58 -137 69 0 107 91 57 138 -32 30 -87
29 -115 -1z"/>
<path d="M3555 6508 c-32 -18 -44 -40 -45 -79 0 -74 89 -110 137 -55 32 38 30
80 -6 117 -31 31 -54 35 -86 17z"/>
<path d="M3326 6319 c-53 -42 -24 -139 42 -139 57 0 92 53 71 109 -20 52 -68
65 -113 30z"/>
<path d="M2467 5589 c-22 -13 -47 -61 -47 -93 0 -14 12 -40 28 -57 l27 -31
525 1 525 2 27 26 c40 38 39 94 -1 134 l-29 29 -519 0 c-333 0 -524 -4 -536
-11z"/>
<path d="M2350 5123 c-43 -22 -80 -76 -80 -117 0 -38 30 -89 65 -112 61 -40
161 -11 196 56 24 44 24 77 -1 117 -38 64 -117 88 -180 56z"/>
<path d="M5035 5266 c-265 -51 -446 -143 -642 -329 -157 -149 -266 -336 -330
-562 -20 -74 -26 -120 -30 -257 -7 -198 5 -292 52 -435 63 -188 157 -343 289
-477 111 -114 200 -178 341 -247 162 -79 247 -99 455 -106 189 -6 274 6 450
63 167 54 321 155 466 306 240 251 358 598 324 956 -17 183 -55 314 -133 467
-156 301 -468 536 -811 611 -97 22 -341 27 -431 10z m411 -260 c38 -21 59 -41
78 -76 25 -47 26 -52 26 -233 l0 -185 118 -3 c104 -4 123 -7 174 -32 136 -67
205 -197 196 -367 -9 -151 -78 -260 -201 -315 -53 -25 -78 -29 -174 -33 l-113
-5 0 -363 0 -364 -80 -40 c-44 -22 -85 -40 -92 -40 -10 0 -12 68 -10 332 2
183 0 366 -3 406 l-7 72 -184 0 -184 0 0 -405 c0 -223 -2 -405 -5 -405 -3 0
-46 20 -95 45 l-90 45 0 360 0 360 -115 0 -115 0 0 95 0 95 115 0 115 0 0 450
0 450 -115 0 -115 0 0 96 0 95 413 -3 412 -3 51 -29z"/>
<path d="M4990 4680 l0 -170 185 0 185 0 0 170 0 170 -185 0 -185 0 0 -170z"/>
<path d="M4990 4135 l0 -185 343 0 c188 0 360 5 381 10 51 11 85 37 108 82 44
84 31 168 -37 235 l-42 43 -377 0 -376 0 0 -185z"/>
<path d="M3040 4795 c-34 -37 -33 -90 4 -121 37 -32 71 -30 107 5 37 38 39 82
4 116 -33 34 -83 34 -115 0z"/>
<path d="M1851 4024 c-45 -57 -14 -124 57 -124 48 0 76 28 76 75 0 47 -28 75
-75 75 -29 0 -42 -6 -58 -26z"/>
<path d="M1798 2669 c-30 -17 -20 -38 27 -61 44 -21 45 -23 45 -69 0 -25 3
-61 6 -78 6 -27 11 -32 33 -29 25 3 26 5 26 76 0 61 3 76 19 88 29 20 46 17
46 -8 0 -13 1 -34 1 -48 l0 -25 20 24 c24 29 26 103 3 126 -18 18 -44 13 -85
-17 l-27 -20 -44 26 c-51 30 -47 29 -70 15z"/>
<path d="M8495 2670 c-11 -5 -31 -18 -44 -28 -25 -20 -25 -20 -71 6 -50 28
-80 25 -80 -8 0 -14 13 -27 45 -42 31 -15 45 -28 45 -42 0 -12 3 -31 6 -43 6
-20 4 -21 -30 -13 -41 9 -52 0 -36 -30 13 -24 49 -40 90 -40 27 0 28 1 36 73
4 39 8 76 8 82 1 5 14 16 30 24 26 12 31 12 43 -5 12 -16 13 -14 13 17 0 19
-5 40 -12 47 -14 14 -16 14 -43 2z"/>
<path d="M8515 2534 c-11 -8 -25 -12 -33 -9 -7 2 -10 0 -7 -5 9 -15 20 -12 46
10 28 23 23 26 -6 4z"/>
</g>
</svg>
